<svg xmlns="http://www.w3.org/2000/svg" width="66" height="66" viewBox="0 0 66 66">
  <g id="Group_280" data-name="Group 280" transform="translate(-199 -10433)">
    <g id="Ellipse_22" data-name="Ellipse 22" transform="translate(199 10433)" fill="none" stroke="#dcdedf" stroke-width="2">
      <circle cx="33" cy="33" r="33" stroke="none"/>
      <circle cx="33" cy="33" r="32" fill="none"/>
    </g>
    <path id="Icon_awesome-instagram" data-name="Icon awesome-instagram" d="M12.636,8.394a6.479,6.479,0,1,0,6.479,6.479A6.469,6.469,0,0,0,12.636,8.394Zm0,10.692a4.212,4.212,0,1,1,4.212-4.212A4.22,4.22,0,0,1,12.636,19.086ZM20.891,8.129A1.511,1.511,0,1,1,19.38,6.618,1.508,1.508,0,0,1,20.891,8.129Zm4.291,1.534a7.479,7.479,0,0,0-2.041-5.3,7.528,7.528,0,0,0-5.3-2.041c-2.086-.118-8.34-.118-10.426,0a7.517,7.517,0,0,0-5.3,2.036,7.5,7.5,0,0,0-2.041,5.3c-.118,2.086-.118,8.34,0,10.426a7.479,7.479,0,0,0,2.041,5.3,7.538,7.538,0,0,0,5.3,2.041c2.086.118,8.34.118,10.426,0a7.479,7.479,0,0,0,5.3-2.041,7.528,7.528,0,0,0,2.041-5.3c.118-2.086.118-8.334,0-10.421Zm-2.7,12.66a4.265,4.265,0,0,1-2.4,2.4c-1.663.66-5.611.508-7.449.508s-5.791.147-7.449-.508a4.265,4.265,0,0,1-2.4-2.4c-.66-1.663-.508-5.611-.508-7.449s-.147-5.791.508-7.449a4.265,4.265,0,0,1,2.4-2.4c1.663-.66,5.611-.508,7.449-.508s5.791-.147,7.449.508a4.265,4.265,0,0,1,2.4,2.4c.66,1.663.508,5.611.508,7.449S23.147,20.664,22.487,22.322Z" transform="translate(219.367 10451.127)"/>
  </g>
</svg>
