<svg xmlns="http://www.w3.org/2000/svg" width="15.49" height="11.609" viewBox="0 0 15.49 11.609"><path d="M-1464.408,7390.015v7.138a.14.14,0,0,0-.023.038,1.427,1.427,0,0,1-1.49,1.169h-1.331q-5.579,0-11.158,0a1.425,1.425,0,0,1-1.484-1.482q0-3.348,0-6.7c0-.052,0-.1.008-.173l.091.058q3.135,2.09,6.27,4.181a2.323,2.323,0,0,0,2.741.006q3.106-2.069,6.209-4.14C-1464.522,7390.074-1464.464,7390.046-1464.408,7390.015Z" transform="translate(1479.898 -7386.751)"/><path d="M-1464.5,7311.146a.2.2,0,0,0-.027.052,1.342,1.342,0,0,1-.589.862q-3.165,2.112-6.333,4.22a1.354,1.354,0,0,1-1.59,0q-3.179-2.107-6.347-4.23a1.358,1.358,0,0,1-.564-1.47,1.424,1.424,0,0,1,1.149-1.065,2.28,2.28,0,0,1,.36-.027h12.368a1.435,1.435,0,0,1,1.555,1.184c0,.01.012.016.018.023Z" transform="translate(1479.994 -7309.486)"/></svg>