<svg id="line1" viewBox="0 0 1202.989 11109.511">
  <path d="M-2660.259,5629.124a1.039,1.039,0,0,1-.817-.4,1.666,1.666,0,0,1-.184-.279c-.086-.151-.19-.367-.317-.655-.243-.55-.587-1.4-1.024-2.527-.924-2.392-2.31-6.153-4.118-11.182-4.074-11.33-10.433-29.479-18.9-53.941-20.5-59.229-53.7-156.426-98.661-288.888-8.14-23.98-15.566-48-22.07-71.382-6.281-22.581-11.876-45.191-16.627-67.2-4.58-21.21-8.5-42.444-11.657-63.113-3.034-19.867-5.443-39.753-7.16-59.1-1.646-18.551-2.7-37.117-3.134-55.181-.414-17.262-.273-34.536.419-51.34.658-16,1.836-32.01,3.5-47.585,1.576-14.762,3.629-29.536,6.1-43.912,2.333-13.548,5.1-27.116,8.236-40.323,2.933-12.36,6.261-24.747,9.9-36.816,3.371-11.193,7.1-22.428,11.081-33.4,3.646-10.042,7.613-20.154,11.792-30.056,15.983-37.881,32.628-67.142,44.783-88.507,6.389-11.229,11.434-20.1,14.653-27.116,3.314-7.226,4.363-11.874,3.3-14.628a5.255,5.255,0,0,0-3.6-3.031c-8.172-2.667-17.771,1.034-36.9,8.406a210.921,210.921,0,0,0-53.031,30.33q-4.925,3.813-9.71,7.922c-2.1,10.208-4.7,21.508-7.624,33.159-5.494,21.867-11.71,43.154-17.976,61.562-7.446,21.87-14.739,39.123-21.677,51.276-3.9,6.837-7.716,12.06-11.33,15.522a22.507,22.507,0,0,1-5.749,4.153,11.373,11.373,0,0,1-5.874,1.189c-4.483-.38-7.456-3.759-8.576-5.03-3.364-3.821-5.3-9.409-5.766-16.605-.441-6.895.481-15.066,2.743-24.285,3.2-13.036,9.027-27.77,16.859-42.607a267.3,267.3,0,0,1,13.686-22.994c5.22-7.864,10.917-15.574,16.931-22.915a271.945,271.945,0,0,1,32.53-33.5c1.311-6.4,2.423-12.356,3.3-17.681,1.573-9.578,2.726-19.391,3.426-29.167.676-9.453.947-19.131.806-28.766a368.075,368.075,0,0,0-5.229-55.96,433.355,433.355,0,0,0-12.656-53.26,521.321,521.321,0,0,0-18.05-49.826c-6.263-14.941-13.464-30.3-21.4-45.657-6.854-13.256-14.5-26.967-22.717-40.751-15.131-25.373-29.59-46.71-41.208-63.856-6.721-9.92-12.529-18.489-16.5-25a186.218,186.218,0,0,1-15.581-32.3,216.186,216.186,0,0,1-10.14-38.257,277.194,277.194,0,0,1-3.8-44.8,379.935,379.935,0,0,1,3.426-51.928,539.094,539.094,0,0,1,11.541-59.663c5.369-21.519,12.283-44.4,20.552-68,8.553-24.414,18.8-50.3,30.458-76.948,12.034-27.51,25.917-56.613,41.261-86.5,15.814-30.807,33.634-63.327,52.963-96.66,19.894-34.306,41.954-70.448,65.567-107.423,24.271-38.006,50.874-77.973,79.07-118.793,28.946-41.906,60.394-85.9,93.471-130.764,33.921-46.006,70.519-94.233,108.776-143.34,39.193-50.307,81.243-102.969,124.979-156.519,44.766-54.81,92.569-112.107,142.083-170.3,50.635-59.511,104.5-121.648,160.087-184.686,7.1-8.05,13.89-16.123,20.19-23.993,7.061-8.82,13.737-17.677,19.841-26.327,6.707-9.5,12.927-19.04,18.49-28.347,6.029-10.089,11.457-20.2,16.139-30.054a287.466,287.466,0,0,0,12.787-31.441,230.812,230.812,0,0,0,8.444-32.516,191.858,191.858,0,0,0,3.11-33.279,171.171,171.171,0,0,0-3.213-33.737,151.878,151.878,0,0,0-6.14-22.2,140.648,140.648,0,0,0-8.806-19.516,153.436,153.436,0,0,0-24.161-32.6c-4.46-4.667-9.249-9.206-14.641-13.877-4.813-4.168-10-8.351-15.866-12.786-10.91-8.25-22.616-16.183-33.937-23.853-10.95-7.42-22.271-15.092-33.073-23.173a288.445,288.445,0,0,1-30.888-26.274,182.073,182.073,0,0,1-26.053-32.19A164.343,164.343,0,0,1-2169.911,2142a170.312,170.312,0,0,1-8.161-21.7,95.907,95.907,0,0,1-3.663-23.98,178.076,178.076,0,0,1,1.458-28.226,318.272,318.272,0,0,1,5.769-31.764c2.443-10.62,5.572-22.257,9.3-34.59,14.391-47.659,36.03-100.729,56.957-152.05,21.337-52.328,41.49-101.754,52.1-140.836a259.924,259.924,0,0,0,6-27.129,112.737,112.737,0,0,0,1.572-22.27c-.3-6.6-1.507-12.166-3.58-16.544a23.825,23.825,0,0,0-3.9-5.894,21.14,21.14,0,0,0-5.431-4.26c-12.744-7-26.7-12.9-41.473-19.146-15.907-6.723-32.357-13.676-47.984-22.393a198.435,198.435,0,0,1-22.713-14.63,149.245,149.245,0,0,1-20.549-18.494c-10.727-11.673-17.943-27.093-20.864-44.591a105.926,105.926,0,0,1-.055-34.361,212.986,212.986,0,0,1-13.582-16.959c-6.174-8.271-12.56-16.826-20.264-23.557a57.535,57.535,0,0,0-12.713-8.567,51.577,51.577,0,0,0-15.841-4.761c-10.284-1.411-20.9-1.683-31.164-1.947-13.314-.341-25.892-.663-37.557-3.286a65.062,65.062,0,0,1-16.623-5.986,51.872,51.872,0,0,1-7.473-4.856,51.689,51.689,0,0,1-6.781-6.379,58.637,58.637,0,0,1-6.134-8.333,74.407,74.407,0,0,1-5.217-10.356,102.627,102.627,0,0,1-4.219-12.6,146.814,146.814,0,0,1-3.143-15.066,258.989,258.989,0,0,1-2.741-38.464c-.073-15.046.78-32.25,2.534-51.133a464.311,464.311,0,0,1,7.56-50.043c3.367-16.423,7.746-33.753,13.013-51.5,4.981-16.786,10.934-34.54,17.693-52.773,6.317-17.043,13.583-35.159,21.6-53.846,7.463-17.406,15.552-35.307,24.729-54.724,8.176-17.3,17.037-35.427,27.089-55.407,18.674-37.119,38.756-75.221,58.176-112.071,26.388-50.071,53.677-101.849,78.041-152.286,13.116-27.153,24.349-51.734,34.342-75.149,11.216-26.287,20.59-50.434,28.657-73.821,4.259-12.346,8.16-24.543,11.6-36.254,3.567-12.156,6.749-24.179,9.456-35.734,2.8-11.949,5.181-23.776,7.077-35.15,1.954-11.726,3.454-23.334,4.457-34.5,1.031-11.483,1.57-22.853,1.6-33.793.03-11.224-.471-22.336-1.494-33.024a301.2,301.2,0,0,0-4.826-32.193,277.879,277.879,0,0,0-8.4-31.3,189.3,189.3,0,0,0-9.51-23.456,146.051,146.051,0,0,0-11.489-19.577,120.941,120.941,0,0,0-13.341-15.964,110.019,110.019,0,0,0-15.077-12.623,111.741,111.741,0,0,0-16.7-9.546,125.242,125.242,0,0,0-18.223-6.727,151.7,151.7,0,0,0-19.63-4.157,192.831,192.831,0,0,0-20.923-1.836c-6.989-.244-14.421-.164-22.09.241-7.322.386-15.1,1.081-23.133,2.066-14.847,1.82-30.842,4.634-48.894,8.6-15.083,3.314-31.95,7.526-51.563,12.874-17.524,4.777-35.678,10.03-53.237,15.11-39.053,11.3-79.434,22.983-118.223,31.084a544.451,544.451,0,0,1-57.1,9.1c-9.5.953-18.744,1.54-27.481,1.747-9.18.217-18.115.023-26.553-.58a222.958,222.958,0,0,1-25.464-3.251,183.754,183.754,0,0,1-24.206-6.271,160.1,160.1,0,0,1-22.779-9.636,150.823,150.823,0,0,1-21.176-13.343,156.075,156.075,0,0,1-19.394-17.384,176.948,176.948,0,0,1-17.438-21.754,216.485,216.485,0,0,1-15.319-26.45,280.019,280.019,0,0,1-13.037-31.479c-7.38-21.25-14.339-44-20.68-67.61-6.16-22.93-11.911-47.32-17.1-72.491-5.026-24.4-9.66-50.227-13.771-76.753-3.98-25.667-7.584-52.716-10.711-80.394-3.02-26.721-5.681-54.786-7.911-83.414-2.147-27.564-3.956-56.436-5.373-85.813-1.361-28.194-2.4-57.664-3.1-87.59-.661-28.61-1.024-58.469-1.077-88.746-.184-105.773,3.3-221.6,10.653-354.106,2.857-51.464,6.343-106.357,10.66-167.819,3.889-55.364,7.9-108.31,11.439-155.024,1.95-25.737,4.836-50.09,8.577-72.381a548.071,548.071,0,0,1,13.111-59.083,384.413,384.413,0,0,1,16.814-47.548,290.407,290.407,0,0,1,19.683-37.774,248.153,248.153,0,0,1,21.707-29.75,248.711,248.711,0,0,1,22.877-23.476c15.438-13.942,30.881-24.736,45.814-35.174,12.364-8.644,24.043-16.807,34.43-25.923a143.666,143.666,0,0,0,14.484-14.517,110.314,110.314,0,0,0,11.963-16.826,465.771,465.771,0,0,0,13.717-116.721c-.118-11.016-.65-22.04-1.579-32.769-.911-10.511-2.231-21.049-3.923-31.317-1.657-10.047-3.719-20.134-6.128-29.983-2.353-9.617-5.109-19.294-8.191-28.763-3-9.226-6.407-18.53-10.117-27.656-3.6-8.871-7.609-17.843-11.9-26.667-4.159-8.551-8.717-17.229-13.547-25.79-4.664-8.266-9.73-16.686-15.056-25.027-10.117-15.844-21.261-31.616-34.071-48.219-11.457-14.849-24.024-30.067-38.421-46.523-26.822-30.657-55.277-60.247-85.4-91.573-35.44-36.854-72.089-74.961-106.929-115.99-18.814-22.156-35.4-43.13-50.7-64.12-8.313-11.4-16.32-22.937-23.8-34.279-7.864-11.924-15.416-24.043-22.443-36.02a867.525,867.525,0,0,1-53.536-108.549,1006.107,1006.107,0,0,1-40.386-119.263,1054.235,1054.235,0,0,1-25.924-125.514,1000.187,1000.187,0,0,1-10.147-127.306c-.3-21.177.119-42.35,1.256-62.931,1.154-20.883,3.071-41.644,5.7-61.709,2.67-20.4,6.136-40.557,10.3-59.924,4.243-19.721,9.316-39.1,15.076-57.586,5.874-18.854,12.608-37.253,20.017-54.689a519.02,519.02,0,0,1,25.124-51.23,463.888,463.888,0,0,1,30.4-47.21,423.708,423.708,0,0,1,35.842-42.631,421.159,421.159,0,0,1,34.264-31.8c11.691-9.714,24.261-19.116,37.362-27.943,12.6-8.487,26.021-16.674,39.9-24.331,13.316-7.346,27.413-14.4,41.9-20.977,13.853-6.286,28.434-12.3,43.34-17.873,14.206-5.311,29.087-10.367,44.23-15.024,27.966-8.6,57.887-16.174,88.937-22.51q2.3-.469,4.609-.93a291.671,291.671,0,0,1-28.994-19.477,314.945,314.945,0,0,1-29.853-25.928,353.115,353.115,0,0,1-26.583-29.34c-30.759-37.957-56.633-85.072-76.9-140.034a715.747,715.747,0,0,1-23.073-75.653c-5.887-23.824-10.781-48.5-14.549-73.35-3.4-22.414-5.86-44.792-7.314-66.509-1.321-19.727-1.779-38.276-1.361-55.13a117.34,117.34,0,0,1,3.761-25.921,177.456,177.456,0,0,1,9.443-26.994,277.8,277.8,0,0,1,14.27-27.89c5.236-9.029,11.377-18.656,18.254-28.616,11.933-17.279,26.7-36.473,45.131-58.678,16.4-19.756,34.027-39.9,51.074-59.373,15.375-17.57,31.276-35.737,45.937-53.249,16.407-19.6,29.606-36.416,40.347-51.416,12.853-17.946,22.587-33.777,29.76-48.4a175.6,175.6,0,0,0,9.351-22.683,111,111,0,0,0,4.854-21.456,72.691,72.691,0,0,0,.444-12.04,51.6,51.6,0,0,0-1.543-10.3,41.061,41.061,0,0,0-3.352-8.724,38.512,38.512,0,0,0-5-7.309,44.047,44.047,0,0,0-8.271-7.324,60.825,60.825,0,0,0-10.326-5.645,111.724,111.724,0,0,0-25.631-7.146c-18.917-3.237-40.98-3.812-62.316-4.369-10-.26-20.334-.53-30.027-1.076a261.133,261.133,0,0,1-27.463-2.773,97.941,97.941,0,0,1-22.832-6.217,49.964,49.964,0,0,1-9.033-4.977,34.932,34.932,0,0,1-7.067-6.55,30.321,30.321,0,0,1-3.95-6.366,32.767,32.767,0,0,1-2.387-7.53,42.225,42.225,0,0,1-.694-8.752,60.972,60.972,0,0,1,1.1-10.059,36.624,36.624,0,0,1,3.169-9.137,66.962,66.962,0,0,1,5.976-9.76,153.349,153.349,0,0,1,19.433-21.281c7.69-7.17,17.1-15.013,27.969-23.309,10.084-7.7,21.786-16.059,34.779-24.853,22.41-15.168,49.573-32.263,83.04-52.258,29.513-17.634,59.956-35.171,89.4-52.133,46-26.5,89.45-51.532,120.224-71.75,16.4-10.771,28.057-19.416,35.653-26.429a49.075,49.075,0,0,0,8.607-9.786c1.628-2.691,2.127-4.913,1.483-6.6-.862-2.26-3.85-3.872-8.883-4.789-5.524-1.007-13.576-1.16-23.934-.454-10.743.733-24.32,2.414-40.356,5-16.487,2.656-36.132,6.357-58.39,11-20.044,4.181-39.516,7.659-57.87,10.335-17.886,2.609-35.21,4.53-51.494,5.711-15.847,1.148-31.151,1.627-45.487,1.427a390.081,390.081,0,0,1-39.85-2.517,290.329,290.329,0,0,1-34.584-6.123,222.521,222.521,0,0,1-29.683-9.391,179.289,179.289,0,0,1-25.141-12.322,155.224,155.224,0,0,1-20.96-14.908,146.467,146.467,0,0,1-21.737-22.88,157.194,157.194,0,0,1-15.974-25.926,189.123,189.123,0,0,1-11.041-28.17,244.464,244.464,0,0,1-6.956-29.627c-3.083-17.872-4.726-37.67-5.019-60.527-.257-19.935.546-39.663,1.253-57.069.539-13.244,1.047-25.754,1.047-36.837,0-27.48,1.37-67.336,3.859-112.228,2.627-47.417,6.234-96.167,10.433-140.98,2.269-24.23,4.674-46.858,7.15-67.26,2.654-21.89,5.4-41.281,8.157-57.637,2.966-17.59,5.981-31.872,8.964-42.446a109.417,109.417,0,0,1,4.747-13.826c1.687-3.843,3.337-6.494,5.049-8.105a5.814,5.814,0,0,1,3.961-1.825c.088,0,.177,0,.265.008l-.119,2c-.046,0-.093,0-.139,0a3.926,3.926,0,0,0-2.6,1.28c-2.993,2.82-6.1,9.893-9.241,21.02-2.964,10.5-5.964,24.714-8.918,42.233-2.751,16.327-5.491,35.687-8.144,57.545-2.471,20.384-4.876,42.995-7.144,67.206-4.194,44.789-7.8,93.513-10.427,140.906-2.484,44.854-3.854,84.671-3.854,112.116,0,11.123-.509,23.653-1.049,36.918-.707,17.38-1.509,37.08-1.251,56.961.292,22.751,1.924,42.447,4.99,60.213a242.5,242.5,0,0,0,6.9,29.384,186.969,186.969,0,0,0,10.924,27.87,155.062,155.062,0,0,0,15.769,25.594,144.485,144.485,0,0,0,21.44,22.568,153.155,153.155,0,0,0,20.688,14.716,177.41,177.41,0,0,0,24.862,12.183,220.634,220.634,0,0,0,29.416,9.306,288.555,288.555,0,0,0,34.344,6.08,387.985,387.985,0,0,0,39.644,2.5c14.28.2,29.525-.277,45.314-1.423,16.236-1.177,33.513-3.093,51.35-5.694,18.314-2.671,37.746-6.141,57.751-10.315,22.287-4.649,41.961-8.354,58.479-11.017,16.1-2.593,29.734-4.282,40.539-5.018,10.522-.718,18.741-.555,24.428.48a22.109,22.109,0,0,1,6.844,2.237,7.6,7.6,0,0,1,3.55,3.807,6.946,6.946,0,0,1,.219,3.972,14.546,14.546,0,0,1-1.861,4.38,50.249,50.249,0,0,1-8.96,10.22c-7.677,7.087-19.424,15.8-35.911,26.63-30.824,20.25-74.3,45.3-120.324,71.812-29.433,16.957-59.87,34.491-89.368,52.117-33.434,19.976-60.566,37.05-82.946,52.2-12.96,8.773-24.63,17.113-34.686,24.787-10.817,8.256-20.176,16.056-27.817,23.182a151.143,151.143,0,0,0-19.177,20.993c-4.824,6.654-7.784,12.743-8.8,18.1a48.594,48.594,0,0,0-.41,18.063,30.855,30.855,0,0,0,2.239,7.07,28.41,28.41,0,0,0,3.69,5.946,32.91,32.91,0,0,0,6.666,6.171,47.925,47.925,0,0,0,8.67,4.774,95.887,95.887,0,0,0,22.364,6.08,259.27,259.27,0,0,0,27.251,2.75c9.661.544,19.984.813,29.967,1.074,43.337,1.13,88.152,2.3,108,25.171a40.456,40.456,0,0,1,5.259,7.688,42.942,42.942,0,0,1,3.516,9.148,53.634,53.634,0,0,1,1.606,10.706,74.675,74.675,0,0,1-.456,12.373,112.867,112.867,0,0,1-4.938,21.847,177.679,177.679,0,0,1-9.457,22.943c-7.223,14.725-17.013,30.649-29.928,48.685-10.773,15.042-24,31.9-40.441,51.536-14.674,17.528-30.582,35.7-45.966,53.281-17.037,19.467-34.656,39.6-51.04,59.333-18.4,22.16-33.124,41.309-45.024,58.539-6.847,9.916-12.96,19.5-18.17,28.481a275.555,275.555,0,0,0-14.167,27.688,175.507,175.507,0,0,0-9.339,26.686,115.442,115.442,0,0,0-3.7,25.477c-.417,16.8.04,35.281,1.357,54.947,1.451,21.663,3.906,43.983,7.3,66.343,3.757,24.787,8.64,49.406,14.513,73.17a713.922,713.922,0,0,0,23.009,75.441c20.194,54.757,45.958,101.68,76.58,139.467a351.538,351.538,0,0,0,26.431,29.173,313.28,313.28,0,0,0,29.662,25.764,289.426,289.426,0,0,0,30.752,20.479c25.1-4.934,51.415-9.176,78.327-12.626,25.216-3.231,51.619-5.853,78.476-7.79,48.86-3.523,89.9-4.154,117.053-4.573,15.737-.241,27.107-.417,32.383-1.049,17.034-2.041,30.679-2.467,40.551-1.264,9.312,1.136,15.073,3.7,17.123,7.636a7.775,7.775,0,0,1,.361,6.143,19.117,19.117,0,0,1-4.141,6.659c-3.53,3.953-8.94,8.121-16.083,12.391a191.124,191.124,0,0,1-26.094,12.686,318.89,318.89,0,0,1-34.581,11.6,401.389,401.389,0,0,1-41.507,9.07,428.177,428.177,0,0,1-46.856,5.07,415.712,415.712,0,0,1-50.621-.4,366.021,366.021,0,0,1-106.2-23.119,280.914,280.914,0,0,1-36.87-17.381q-.835-.471-1.669-.948-3.427.676-6.827,1.37c-30.986,6.324-60.846,13.881-88.749,22.463-15.107,4.646-29.95,9.688-44.119,14.986-14.863,5.559-29.4,11.554-43.214,17.822-14.437,6.553-28.487,13.586-41.757,20.906-13.833,7.63-27.207,15.786-39.754,24.24-13.044,8.79-25.56,18.15-37.2,27.823a418.623,418.623,0,0,0-34.1,31.653,421.8,421.8,0,0,0-35.671,42.429,461.4,461.4,0,0,0-30.269,47.007,516.545,516.545,0,0,0-25.027,51.031c-7.383,17.373-14.094,35.71-19.948,54.5-5.743,18.434-10.8,37.75-15.03,57.411-4.156,19.314-7.613,39.421-10.276,59.764-2.62,20.016-4.531,40.726-5.683,61.559-1.134,20.536-1.556,41.662-1.253,62.793a998.028,998.028,0,0,0,10.127,127.05,1052.279,1052.279,0,0,0,25.874,125.276,1004.242,1004.242,0,0,0,40.306,119.024,865.488,865.488,0,0,0,53.41,108.3c7.01,11.947,14.543,24.036,22.388,35.93,7.463,11.316,15.453,22.823,23.747,34.2,15.27,20.95,31.823,41.886,50.606,64,34.8,40.981,71.426,79.066,106.846,115.9,30.143,31.344,58.614,60.95,85.467,91.643,14.424,16.487,27.017,31.737,38.5,46.619,12.846,16.65,24.024,32.47,34.173,48.364,5.346,8.37,10.43,16.823,15.111,25.12,4.85,8.6,9.427,17.31,13.6,25.9,4.311,8.863,8.334,17.876,11.956,26.787,3.727,9.17,7.149,18.52,10.166,27.792,3.1,9.514,5.867,19.24,8.233,28.906,2.423,9.9,4.494,20.036,6.158,30.133,1.7,10.318,3.027,20.907,3.943,31.47.933,10.779,1.467,21.854,1.586,32.92a467.759,467.759,0,0,1-13.81,117.363l-.034.137-.07.121a112.228,112.228,0,0,1-12.247,17.25,145.7,145.7,0,0,1-14.684,14.717c-10.469,9.189-22.191,17.383-34.6,26.059-14.883,10.4-30.273,21.163-45.62,35.02a247,247,0,0,0-22.7,23.289,246.413,246.413,0,0,0-21.531,29.51,288.531,288.531,0,0,0-19.546,37.513,382.8,382.8,0,0,0-16.726,47.3,546.444,546.444,0,0,0-13.063,58.866c-3.731,22.231-6.609,46.524-8.554,72.2-3.539,46.71-7.548,99.653-11.437,155.014-4.317,61.45-7.8,116.334-10.659,167.789-7.351,132.464-10.834,248.256-10.65,353.991.053,30.263.416,60.107,1.077,88.7.691,29.909,1.733,59.361,3.093,87.54,1.417,29.357,3.224,58.209,5.37,85.754,2.227,28.6,4.887,56.646,7.9,83.344,3.124,27.651,6.724,54.671,10.7,80.311,4.107,26.494,8.736,52.286,13.754,76.657,5.177,25.133,10.918,49.483,17.068,72.376,6.33,23.566,13.273,46.267,20.639,67.473a277.889,277.889,0,0,0,12.943,31.251,214.138,214.138,0,0,0,15.176,26.206,174.624,174.624,0,0,0,17.24,21.507,153.772,153.772,0,0,0,19.144,17.16,148.767,148.767,0,0,0,20.893,13.166,158.055,158.055,0,0,0,22.494,9.516,181.536,181.536,0,0,0,23.942,6.2,221.135,221.135,0,0,0,25.233,3.223c8.377.6,17.247.791,26.364.574,8.686-.206,17.882-.79,27.33-1.737a542.038,542.038,0,0,0,56.891-9.07c38.713-8.086,79.059-19.759,118.076-31.047,17.566-5.081,35.729-10.337,53.267-15.119,19.646-5.357,36.543-9.576,51.658-12.9,18.116-3.981,34.17-6.806,49.08-8.634,8.074-.99,15.9-1.689,23.271-2.079,7.727-.407,15.218-.489,22.267-.241a195.036,195.036,0,0,1,21.14,1.856,153.518,153.518,0,0,1,19.89,4.213,127.16,127.16,0,0,1,18.514,6.836,113.7,113.7,0,0,1,17,9.717,112.094,112.094,0,0,1,15.35,12.851,122.9,122.9,0,0,1,13.564,16.23,148.011,148.011,0,0,1,11.647,19.846,191.529,191.529,0,0,1,9.613,23.7,280.21,280.21,0,0,1,8.456,31.531,302.928,302.928,0,0,1,4.858,32.407c1.029,10.753,1.534,21.93,1.5,33.219-.031,11-.573,22.427-1.61,33.969-1.007,11.219-2.513,22.879-4.476,34.653-1.9,11.417-4.293,23.287-7.1,35.277-2.717,11.593-5.907,23.651-9.486,35.841-3.446,11.741-7.357,23.969-11.626,36.344-8.082,23.433-17.473,47.623-28.708,73.953-10,23.444-21.25,48.053-34.38,75.234-24.378,50.469-51.676,102.261-78.073,152.349-19.416,36.841-39.493,74.936-58.157,112.037-10.044,19.966-18.9,38.076-27.067,55.363-9.166,19.4-17.246,37.274-24.7,54.657-8,18.657-15.254,36.743-21.56,53.753-6.743,18.191-12.681,35.9-17.649,52.647-5.253,17.7-9.617,34.97-12.973,51.337a462.536,462.536,0,0,0-7.527,49.826c-1.749,18.82-2.6,35.957-2.526,50.939a257.053,257.053,0,0,0,2.717,38.163,121.126,121.126,0,0,0,7.234,27.211,72.383,72.383,0,0,0,5.074,10.077,56.519,56.519,0,0,0,5.924,8.047c16.469,18.54,41.009,19.17,66.99,19.836,10.32.264,20.991.539,31.386,1.964,24.54,3.367,37.559,20.806,50.149,37.67,3.964,5.311,8.041,10.772,12.423,15.67a91.887,91.887,0,0,1,2.4-9.675,75.791,75.791,0,0,1,4.851-12.119,55.362,55.362,0,0,1,6.489-10.044,38.246,38.246,0,0,1,8-7.414,28.219,28.219,0,0,1,9.367-4.183,37.361,37.361,0,0,1,18.451-.046,31.657,31.657,0,0,1,13.48,7.616,39.235,39.235,0,0,1,6.682,8.339,46.465,46.465,0,0,1,4.3,9.351c2.043,6.127,2.751,12.371,1.944,17.133a27.887,27.887,0,0,1-4.529,11.021,29.106,29.106,0,0,1-9.914,9c-7.389,4.12-20.444,7.307-40.68-.9a49.826,49.826,0,0,1-10.49-5.847,68.167,68.167,0,0,1-8.964-7.816l-.09-.092a104.046,104.046,0,0,0,.293,32.2c2.857,17.114,9.9,32.18,20.364,43.567a147.344,147.344,0,0,0,20.277,18.249,196.479,196.479,0,0,0,22.486,14.481c15.533,8.666,31.93,15.6,47.789,22.3,14.823,6.266,28.823,12.183,41.658,19.236a23.1,23.1,0,0,1,5.943,4.664,25.768,25.768,0,0,1,4.231,6.387,36.482,36.482,0,0,1,2.62,7.94,57.459,57.459,0,0,1,1.151,9.369c.577,12.593-1.921,28.951-7.641,50.014-10.646,39.2-30.822,88.68-52.181,141.066-20.909,51.28-42.53,104.306-56.894,151.873-3.711,12.291-6.827,23.886-9.261,34.461a316.707,316.707,0,0,0-5.733,31.563,176.1,176.1,0,0,0-1.444,27.9,93.925,93.925,0,0,0,3.58,23.479,168.363,168.363,0,0,0,8.064,21.441,162.071,162.071,0,0,0,10.249,18.948,179.965,179.965,0,0,0,25.771,31.839,286.345,286.345,0,0,0,30.676,26.091c10.763,8.053,22.066,15.711,33,23.119,11.342,7.684,23.069,15.631,34.021,23.914,5.9,4.46,11.121,8.67,15.969,12.869,5.44,4.713,10.273,9.294,14.777,14.007a155.426,155.426,0,0,1,24.471,33.019,142.756,142.756,0,0,1,8.93,19.794,153.939,153.939,0,0,1,6.221,22.493,173.219,173.219,0,0,1,3.251,34.133,193.878,193.878,0,0,1-3.141,33.626,232.871,232.871,0,0,1-8.517,32.8,289.572,289.572,0,0,1-12.877,31.663c-4.707,9.911-10.167,20.079-16.227,30.221-5.589,9.352-11.837,18.931-18.573,28.474-6.129,8.683-12.829,17.573-19.914,26.424-6.32,7.894-13.133,15.991-20.251,24.066-55.583,63.029-109.436,125.157-160.064,184.66-49.5,58.183-97.3,115.47-142.056,170.27-43.727,53.539-85.767,106.187-124.951,156.483-38.246,49.093-74.833,97.3-108.743,143.3-33.066,44.847-64.5,88.826-93.436,130.714-28.183,40.8-54.771,80.747-79.03,118.731-23.6,36.951-45.643,73.07-65.521,107.351-19.313,33.3-37.116,65.793-52.916,96.57-15.324,29.851-29.19,58.917-41.208,86.388-11.637,26.6-21.866,52.441-30.4,76.809-8.25,23.546-15.146,46.364-20.5,67.824a537.083,537.083,0,0,0-11.5,59.438,377.771,377.771,0,0,0-3.408,51.654,275.019,275.019,0,0,0,3.774,44.471,214.127,214.127,0,0,0,10.044,37.9,184.193,184.193,0,0,0,15.413,31.954c3.943,6.466,9.737,15.014,16.444,24.914,11.633,17.166,26.11,38.53,41.271,63.953,8.24,13.818,15.9,27.565,22.776,40.857,7.963,15.4,15.186,30.812,21.47,45.8a523.716,523.716,0,0,1,18.119,50.019,435.465,435.465,0,0,1,12.716,53.507,370.251,370.251,0,0,1,5.256,56.266c.143,9.691-.13,19.427-.811,28.938-.7,9.835-1.863,19.71-3.447,29.349-.763,4.647-1.707,9.774-2.8,15.253q3.876-3.261,7.842-6.331a212.849,212.849,0,0,1,53.537-30.614c19.568-7.542,29.39-11.329,38.237-8.443a7.222,7.222,0,0,1,4.849,4.211,11.776,11.776,0,0,1,.069,6.86,49.559,49.559,0,0,1-3.412,9.324c-3.256,7.1-8.32,16-14.733,27.273-12.13,21.321-28.741,50.521-44.679,88.294-4.166,9.872-8.12,19.952-11.754,29.962-3.97,10.931-7.686,22.131-11.046,33.288-3.623,12.033-6.943,24.38-9.864,36.7-3.123,13.166-5.886,26.691-8.211,40.2-2.469,14.334-4.516,29.064-6.086,43.784-1.658,15.533-2.831,31.5-3.489,47.454-.69,16.763-.832,33.992-.417,51.211.433,18.02,1.484,36.543,3.127,55.051,1.713,19.31,4.116,39.154,7.144,58.98,3.15,20.627,7.064,41.821,11.634,62.993,4.744,21.974,10.329,44.546,16.6,67.09,6.494,23.35,13.908,47.33,22.036,71.273,44.014,129.66,76.767,225.582,97.352,285.1,5.194,15.019,9.637,27.789,13.288,38.192-.727-2.255-1.184-3.667-1.2-3.7l1.9-.616c.03.094,3.119,9.622,6.094,19.05,1.749,5.541,3.117,9.964,4.069,13.148.567,1.9.99,3.374,1.259,4.389.151.567.254.991.316,1.3a3.928,3.928,0,0,1,.069.453,1.055,1.055,0,0,1-.7,1.154A1.042,1.042,0,0,1-2660.259,5629.124Zm-176.654-1041.741a270.835,270.835,0,0,0-30.311,31.522c-5.971,7.289-11.629,14.943-16.813,22.751a265.242,265.242,0,0,0-13.583,22.822c-7.757,14.7-13.526,29.271-16.686,42.151-2.211,9.02-3.117,16.987-2.688,23.678.433,6.746,2.206,11.932,5.271,15.413,1.066,1.211,3.561,4.047,7.244,4.358q.325.028.655.028c2.912,0,6.074-1.619,9.416-4.82,3.474-3.33,7.167-8.4,10.976-15.07,6.875-12.043,14.117-29.179,21.521-50.929,6.249-18.357,12.447-39.59,17.929-61.4C-2841.306,4607.23-2838.909,4596.873-2836.913,4587.382ZM-2212.992,1478.5q.556.591,1.119,1.168a66.327,66.327,0,0,0,8.7,7.59,47.852,47.852,0,0,0,10.073,5.616c19.5,7.914,31.947,4.919,38.954,1.011a27.121,27.121,0,0,0,9.24-8.386,25.88,25.88,0,0,0,4.206-10.223,27.407,27.407,0,0,0,.09-7.38,42.538,42.538,0,0,0-1.96-8.786,44.542,44.542,0,0,0-4.114-8.95,37.319,37.319,0,0,0-6.339-7.914,29.668,29.668,0,0,0-12.634-7.143,35.369,35.369,0,0,0-17.47.061,26.222,26.222,0,0,0-8.7,3.891,36.307,36.307,0,0,0-7.574,7.029,53.4,53.4,0,0,0-6.25,9.681,73.766,73.766,0,0,0-4.723,11.8A90.723,90.723,0,0,0-2212.992,1478.5Zm-466.766-4901.03a278.838,278.838,0,0,0,36.242,17.054,364.1,364.1,0,0,0,105.623,22.99,413.622,413.622,0,0,0,50.377.4,426.4,426.4,0,0,0,46.636-5.046c59.119-9.731,103.657-30.06,117.1-45.112a17.165,17.165,0,0,0,3.727-5.933,5.844,5.844,0,0,0-.23-4.611c-1.7-3.266-7.093-5.539-15.59-6.574-9.714-1.183-23.2-.758-40.071,1.264-5.38.644-16.793.82-32.59,1.063-27.134.417-68.137,1.049-116.94,4.569-26.822,1.933-53.187,4.55-78.366,7.779C-2629.9-3431.348-2655.385-3427.265-2679.758-3422.529Z" transform="translate(3163.746 5480.387)" fill="none" stroke="#a1a1a1" stroke-width="2" id="drow_line"/>
</svg>
