<svg xmlns="http://www.w3.org/2000/svg" width="15.014" height="15.011" viewBox="0 0 15.014 15.011"><path d="M-1251.684,7347.948a4,4,0,0,1,.6.316,1.018,1.018,0,0,1,.4.786,10.676,10.676,0,0,0,.237,2.044c.065.265.142.526.213.789a1.217,1.217,0,0,1-.253,1.123c-.42.539-.828,1.087-1.237,1.634a.159.159,0,0,0-.01.139,9.458,9.458,0,0,0,2.205,2.82,11,11,0,0,0,1.868,1.253.159.159,0,0,0,.139-.01q.839-.628,1.67-1.263a1.208,1.208,0,0,1,1.048-.229c.489.11.971.253,1.464.338a7.448,7.448,0,0,0,1.238.1,1.247,1.247,0,0,1,1.251.98.272.272,0,0,0,.022.053v3.108c-.01.027-.021.053-.028.081a1.192,1.192,0,0,1-1.244.942c-.444-.008-.889-.02-1.331-.065a13.329,13.329,0,0,1-2.66-.539,13.747,13.747,0,0,1-6.394-4.188,13.6,13.6,0,0,1-2.787-5.079,13.611,13.611,0,0,1-.57-3.895,1.153,1.153,0,0,1,.487-1,3.036,3.036,0,0,1,.539-.247Z" transform="translate(1255.848 -7347.948)"/></svg>