<svg xmlns="http://www.w3.org/2000/svg" width="66" height="66" viewBox="0 0 66 66">
  <g id="Group_281" data-name="Group 281" transform="translate(-199 -10433)">
    <g id="Ellipse_22" data-name="Ellipse 22" transform="translate(199 10433)" fill="none" stroke="#dcdedf" stroke-width="2">
      <circle cx="33" cy="33" r="33" stroke="none"/>
      <circle cx="33" cy="33" r="32" fill="none"/>
    </g>
    <path id="Icon_awesome-twitter" data-name="Icon awesome-twitter" d="M22.45,8.445c.016.222.016.445.016.667A14.491,14.491,0,0,1,7.875,23.7,14.492,14.492,0,0,1,0,21.4a10.609,10.609,0,0,0,1.238.063A10.27,10.27,0,0,0,7.6,19.273,5.137,5.137,0,0,1,2.81,15.717a6.467,6.467,0,0,0,.969.079,5.424,5.424,0,0,0,1.35-.175,5.129,5.129,0,0,1-4.112-5.033v-.063a5.165,5.165,0,0,0,2.318.651A5.136,5.136,0,0,1,1.746,4.317,14.577,14.577,0,0,0,12.32,9.684a5.789,5.789,0,0,1-.127-1.175A5.133,5.133,0,0,1,21.068,5a10.1,10.1,0,0,0,3.255-1.238,5.114,5.114,0,0,1-2.255,2.826,10.281,10.281,0,0,0,2.953-.794A11.024,11.024,0,0,1,22.45,8.445Z" transform="translate(219.489 10452.458)"/>
  </g>
</svg>
